# xmcd CD database file
#
# Track frame offsets:
#	150
#	17405
#	29259
#	66568
#	86648
#	104422
#	125844
#	145603
#	170305
#	190254
#	210330
#
# Disc length: 2989 seconds
#
# Revision: 0
# Processed by: cddbd v1.4PL0 Copyright (c) Steve Scherf et al.
# Submitted via: CDex 1.40Release
#
DISCID=940bab0b
DTITLE=Creed - Weathered
DYEAR=2001
DGENRE=Country
TTITLE0=Bullets
TTITLE1=Freedom Fighter
TTITLE2=Who's Got My Back
TTITLE3=Signs
TTITLE4=One Last Breath
TTITLE5=My Sacrifice
TTITLE6=Stand Here With Me
TTITLE7=Weathered
TTITLE8=Hide
TTITLE9=Don't Stop Dancing
TTITLE10=Lullaby
EXTD=YEAR: 2001 ID3G: 2
EXTT0=
EXTT1=
EXTT2=
EXTT3=
EXTT4=
EXTT5=
EXTT6=
EXTT7=
EXTT8=
EXTT9=
EXTT10=
PLAYORDER=
